<?xml version="1.0" encoding="iso-8859-1"?>
<!-- Uploaded to: SVG Repo, www.svgrepo.com, Generator: SVG Repo Mixer Tools -->
<svg fill="#000000" height="800px" width="800px" version="1.1" id="Layer_1" xmlns="http://www.w3.org/2000/svg" xmlns:xlink="http://www.w3.org/1999/xlink" 
	 viewBox="0 0 194.828 194.828" xml:space="preserve">
<g>
	<g>
		<g>
			<path d="M19.483,77.931C8.741,77.931,0,86.672,0,97.414s8.741,19.483,19.483,19.483c10.742,0,19.483-8.741,19.483-19.483
				S30.225,77.931,19.483,77.931z M19.483,109.103c-6.446,0-11.69-5.244-11.69-11.69c0-6.446,5.244-11.69,11.69-11.69
				c6.446,0,11.69,5.244,11.69,11.69C31.172,103.86,25.929,109.103,19.483,109.103z"/>
			<path d="M97.414,77.931c-10.742,0-19.483,8.741-19.483,19.483s8.741,19.483,19.483,19.483s19.483-8.741,19.483-19.483
				S108.156,77.931,97.414,77.931z M97.414,109.103c-6.446,0-11.69-5.244-11.69-11.69c0-6.446,5.244-11.69,11.69-11.69
				s11.69,5.244,11.69,11.69C109.103,103.86,103.86,109.103,97.414,109.103z"/>
			<path d="M175.345,77.931c-10.742,0-19.483,8.741-19.483,19.483s8.741,19.483,19.483,19.483s19.483-8.741,19.483-19.483
				S186.087,77.931,175.345,77.931z M175.345,109.103c-6.446,0-11.69-5.244-11.69-11.69c0-6.446,5.244-11.69,11.69-11.69
				c6.446,0,11.69,5.244,11.69,11.69C187.034,103.86,181.791,109.103,175.345,109.103z"/>
		</g>
	</g>
</g>
</svg>