<?xml version="1.0" ?><!-- Uploaded to: SVG Repo, www.svgrepo.com, Generator: SVG Repo Mixer Tools -->
<svg fill="#FFFFFF" width="800px" height="800px" viewBox="0 0 64 64" data-name="Layer 1" id="Layer_1" xmlns="http://www.w3.org/2000/svg"><title/><path d="M37,45.48H4a2,2,0,0,1-2-2V12.53A2,2,0,0,1,5.35,11L26.54,29.47,47.71,11A2,2,0,0,1,51,12.53V28.09a2,2,0,0,1-.65,1.47,2,2,0,0,1-1.51.52,9.8,9.8,0,0,0-10,12.78A2,2,0,0,1,37,45.48ZM6,41.48H34.48a14.88,14.88,0,0,1-.09-1.64A13.79,13.79,0,0,1,47,26.1V16.93L27.85,33.64a2,2,0,0,1-2.63,0L6,16.92Z"/><path d="M26.53,34.13a2,2,0,0,1-1.31-.5L2.73,14a2,2,0,0,1-.56-2.2A2,2,0,0,1,4,10.52l22.49-.15L49,10.52a2,2,0,0,1,1.86,1.31,2,2,0,0,1-.56,2.2L27.85,33.64A2.06,2.06,0,0,1,26.53,34.13ZM9.34,14.49l17.2,15,17.19-15-17.21-.12Z"/><path d="M4,45.48a1.94,1.94,0,0,1-.87-.2A2,2,0,0,1,2,43.48v-31A2,2,0,0,1,5.35,11L23.92,27.19a2,2,0,0,1,.68,1.55,1.94,1.94,0,0,1-.75,1.52L5.29,45A2,2,0,0,1,4,45.48ZM6,16.92V39.33l13.44-10.7Z"/><path d="M37.71,36.42A2,2,0,0,1,36.46,36l-7.19-5.76a2,2,0,0,1-.75-1.51,2,2,0,0,1,.69-1.55L47.71,11A2,2,0,0,1,51,12.53V28.09a2,2,0,0,1-.65,1.47,2,2,0,0,1-1.51.52,9.73,9.73,0,0,0-9.38,5.26,2.06,2.06,0,0,1-1.78,1.08ZM33.64,28.6l3.58,2.86A13.75,13.75,0,0,1,47,26.1V16.93Z"/><path d="M4,45.48a1.94,1.94,0,0,1-.87-.2A2,2,0,0,1,2,43.48v-31A2,2,0,0,1,5.35,11L23.92,27.19a2,2,0,0,1,.68,1.55,1.94,1.94,0,0,1-.75,1.52L5.29,45A2,2,0,0,1,4,45.48ZM6,16.92V39.33l13.44-10.7Z"/><path d="M37.71,36.42A2,2,0,0,1,36.46,36l-7.19-5.76a2,2,0,0,1-.75-1.51,2,2,0,0,1,.69-1.55L47.71,11A2,2,0,0,1,51,12.53V28.09a2,2,0,0,1-.65,1.47,2,2,0,0,1-1.51.52,9.73,9.73,0,0,0-9.38,5.26,2.06,2.06,0,0,1-1.78,1.08ZM33.64,28.6l3.58,2.86A13.75,13.75,0,0,1,47,26.1V16.93Z"/><path d="M48.17,47.92a2,2,0,0,1-2-2V33.76a2,2,0,0,1,4,0V45.92A2,2,0,0,1,48.17,47.92Z"/><path d="M54.25,41.84H42.09a2,2,0,0,1,0-4H54.25a2,2,0,0,1,0,4Z"/><path d="M48.18,53.63A13.75,13.75,0,0,1,35.06,44.1a13.47,13.47,0,0,1-.67-4.26A13.79,13.79,0,1,1,48.18,53.63Zm0-23.57a9.71,9.71,0,1,0,.7,0C48.64,30.06,48.41,30.06,48.18,30.06Z"/></svg>