<svg xmlns="http://www.w3.org/2000/svg" viewBox="0 0 366.82 391.22"><defs><style>.cls-1{fill:#fae281;}.cls-2{fill:#009f78;}.cls-3{opacity:0.17;}.cls-4{fill:#ddd;}.cls-5{fill:#efefef;}</style></defs><g id="Layer_2" data-name="Layer 2"><g id="Layer_3" data-name="Layer 3"><path class="cls-1" d="M101.52,182.76c6.65,6.12,12.38,13.12,18.46,19.77q61.28,67,122.4,134.19c.85.93,2.18,1.67,1.93,3.28-1,.3-2,.66-3,.88-8.89,2-17.95,2.53-27,3.23-.65,0-1.3-.11-1.95-.12-14.28-.2-28.31-1.87-41.8-6.86l-18.31-8.05c-3.34-2.34-6.24-2.11-8.84,1.26a27,27,0,0,1-3.52,3.21c-18.13,16.53-36.15,33.17-54.43,49.54-12.06,10.81-31.29,11.68-43.77-2.45-11.08-12-10.89-31.87,3.79-45,19.48-17.42,38.64-35.17,58-52.69,1.7-1.54,1.92-2.74,1-4.75-12-27.12-13.32-55.12-6.69-83.72A57.82,57.82,0,0,1,101.52,182.76Z"/></g><g id="Layer_2-2" data-name="Layer 2"><path class="cls-2" d="M329.57,105.59a113.42,113.42,0,0,0-37-27.55c18.11,30.76,21.62,72-3.44,125.65-16.38,35-49.7,65.37-49.7,65.37l-1.45-.6a1.75,1.75,0,0,1,.11.24c-.88.68-1.71,1.4-2.63,2-8.08,5.41-17,9.55-25.79,13.84-.68.23-1.37.42-2,.68q-4.62,1.77-9.32,3.34c26.09,28.9,47.08,52.23,47.08,52.23s39.9-15.57,67.64-41.66C393,224,370.94,151.72,329.57,105.59Z"/><path class="cls-2" d="M209.67,284.55c8.81-4.29,17.71-8.43,25.79-13.84.92-.61,1.75-1.33,2.63-2a1.75,1.75,0,0,0-.11-.24l1.45.6s33.32-30.33,49.7-65.37c25.06-53.61,21.55-94.89,3.44-125.65-43.2-20-94.58-9.83-129.16,16.82-53.36,41.13-60.25,83.8-60.87,88.62,6.65,6.13,12.38,13.12,18.46,19.78,20.39,22.29,51.37,56.56,77.32,85.31q4.69-1.56,9.32-3.34C208.3,285,209,284.78,209.67,284.55Z"/><path class="cls-3" d="M209.67,284.55c8.81-4.29,17.71-8.43,25.79-13.84.92-.61,1.75-1.33,2.63-2a1.75,1.75,0,0,0-.11-.24l1.45.6s33.32-30.33,49.7-65.37c25.06-53.61,21.55-94.89,3.44-125.65-43.2-20-94.58-9.83-129.16,16.82-53.36,41.13-60.25,83.8-60.87,88.62,6.65,6.13,12.38,13.12,18.46,19.78,20.39,22.29,51.37,56.56,77.32,85.31q4.69-1.56,9.32-3.34C208.3,285,209,284.78,209.67,284.55Z"/></g><g id="Layer_1-2" data-name="Layer 1"><path class="cls-3" d="M70.79,273.2C59,297.06,47.57,321,35.66,344.83c-9,17.93-.35,36.24,16.14,42.74,18.85,7.9,37.86-.64,45.23-15.4,11.17-22.35,22-44.86,32.91-67.3a26.94,26.94,0,0,0,2.12-4.36c1.13-4.13,3.95-5.51,8.35-4.71h22a136.85,136.85,0,0,0,35.87-7.22c-13.81-15.3-29-32.17-43.36-48-19.23-8.64-42.81-19.24-65.8-29.52C77.87,246.39,71.1,272.57,70.79,273.2Z"/><path class="cls-2" d="M244.72,67.57c-11-20-27.61-35.58-46.3-47.09a173.7,173.7,0,0,0-19.13-10.15c-63.86-28.91-129,6.93-156.41,57.11-32.27,59.14-21.39,101-20,105.63,8.55,2.93,16.61,7,24.86,10.67,16.74,7.38,38.8,17.22,61.44,27.35,23,10.28,46.57,20.88,65.8,29.52,24.57,11,42,18.91,42,18.91s30.25-30.32,45.13-65.37C265.1,140,261.6,98.43,244.72,67.57Z"/><path class="cls-1" d="M1.64,172.72c8.55,2.93,16.62,7,24.87,10.66q83.12,36.69,166.16,73.56c1.15.51,2.66.66,3.09,2.23-.79.67-1.55,1.4-2.39,2C186,266.59,178,270.73,170,275c-.61.22-1.24.42-1.84.67-13.15,5.58-26.67,9.7-41,10.57h-20c-4-.8-6.56.57-7.59,4.71a27.94,27.94,0,0,1-1.92,4.36c-10,22.44-19.75,44.94-29.88,67.29-6.7,14.76-24,23.31-41.08,15.41-15-6.5-22.81-24.81-14.66-42.74,10.82-23.79,21.22-47.77,31.9-71.63.94-2.09.66-3.27-1-4.76-21.89-20-34.4-45.1-39.86-74A57.56,57.56,0,0,1,1.64,172.72Z"/><path class="cls-4" d="M81.6,118.14l-9,1.72c-13.23,0-24.61-4.38-33.62-14.32-4.62-5.1-7.29-11.24-9.56-17.61-.74-6.46-1.37-12.94,0-19.38a41.94,41.94,0,0,1,31.8-31.81c1.55-.35,3.14-.51,4.71-.75,5,.15,10.14-.84,15,1.38a4.2,4.2,0,0,1-2.29,1.38A37.09,37.09,0,0,0,65,47.58C55.39,57.37,51,69,52.7,82.88c1.45,11.8,7.08,20.86,16.17,28.19C72.75,114.2,77.33,115.83,81.6,118.14Z"/><path class="cls-5" d="M80.77,118.26c-4.27-2.3-8.85-3.94-12.72-7.06C59,103.86,53.32,94.81,51.87,83,50.16,69.09,54.56,57.49,64.18,47.7a37.34,37.34,0,0,1,13.67-8.83,4.14,4.14,0,0,0,2.29-1.38c6.49.84,11.76,4.25,16.62,8.25,18,14.83,20,42.2,4.52,59.69A39.88,39.88,0,0,1,80.77,118.26Z"/></g></g></svg>