<svg xmlns="http://www.w3.org/2000/svg" viewBox="0 0 1139.79 676.2"><defs><style>.cls-1{fill:#e99346;}.cls-2{fill:#e29e86;}.cls-3{fill:#af786b;}.cls-4{fill:#fac165;}.cls-5{fill:#fe2763;}.cls-6{fill:#d3927f;}.cls-7{fill:#f6bd76;}.cls-8{fill:#f1af65;}.cls-9{fill:#eda055;}.cls-10{fill:#fcd795;}.cls-11{fill:#fbcc88;}.cls-12{fill:#662637;}.cls-13{fill:#642637;}.cls-14{fill:#5a2434;}.cls-15{fill:#d3dee2;}.cls-16{fill:#c4817c;}</style></defs><g id="Layer_2" data-name="Layer 2"><g id="Layer_7" data-name="Layer 7"><path class="cls-1" d="M982.5,500.94c5.71-1.77,9.21-5.27,10.1-10.42q3.54-20.31,6.78-40.65c3-19.28,5.91-38.57,9-57.85,2-12.78,4.24-25.54,6.27-38.32.32-2,.32-4,2.75-5.11a90,90,0,0,0,29.34-22.33,14.22,14.22,0,0,1,2.66-1.88c1.37,3,3.3,5.41,7.64,5.48a4.25,4.25,0,0,1,3.9,2c-5.42,6.63-12.47,11.75-20.48,15.82-3.23,1.64-4.87,3.31-5.27,6.8Q1027.3,422.65,1019,490.8c-1.31,11-7.57,14.93-20.25,12.88C993.31,502.81,987.91,501.86,982.5,500.94Z"/></g><g id="Layer_4" data-name="Layer 4"><path class="cls-2" d="M837,498.34l.18,1.3q3.56,24.84,7.13,49.67c.25,1.73,0,3.73,2.21,4.68a37.36,37.36,0,0,1,4.11-1c5.17-.71,10.19-3.06,15.36-2.67,10.48.79,20.92,1.81,31.45,2.13a350.63,350.63,0,0,0,47.84-1.72c9.53-1,56.5-16.38,66-17.73,1.17-.46-31.64-13.22-31.55-14.21.46-5-7.49-1.16-10.94-3.14-4.22-2.43-14.24-80.88-13.75-87.16-8,12.45-20.41,22.25-25.27,34.87C915,502.85,869.94,498.46,837,498.34Z"/></g><g id="Layer_3" data-name="Layer 3"><path class="cls-3" d="M981,520.62l-1,6.84c-2.53-1.07-2.55-3.32-2.69-5.39-.18-2.5-1.16-4.06-3.68-5.39-4.51-2.39-8.24-5.67-10.22-10.41-.62-1.49.43,1.77,0,0-3.32,2.41-4.71,1.11-6.49,4-3,4.94-5.82,10-8.77,15-.45.76-.95,2-2,1.74-1.28-.34-.79-1.63-.65-2.59,1.34-9.19-.42-17.37,4.65-27.48.07-.8,0-1.6.12-2.4.12-1.19,8.82-24.45,7.25-25.06s-20,25.07-23.91,22.1c-2.46-1.84,2.7-17.43,3.92-20.25-.51-1.72.73-2.88,1.69-4.08,5.58-7,10.34-14.35,13-22.73,1.19-3.68,1.67-7.49,3-11.12a28.36,28.36,0,0,1,3.09-6c1.84-.1,1.93,1.32,2.28,2.38a47.48,47.48,0,0,0,2.6,6.77c1.91,3.83,4.81,5.26,9.4,4.71,2.28-.27,4.54-.64,6.81-.94a5.73,5.73,0,0,1,4.07.57l1.68,2.82c-.48,1.51-1.83,1.93-3.26,2.22-3.09.62-6.12,1.51-9.24,2.05-5,.86-7.27,3.76-6.87,8.46.91,10.79,3.22,12.69,15,12.38,1.84,0,3.69,0,5.54-.15,1.26-.08,2.69-.32,3.39,1.1-.06.72-1,1.06-1,1.93a57,57,0,0,0,11.53-.71c1.46-.18,3.25-.87,4.17,1-5.14,1-8.54,4.24-9.07,9.57-.89,8.93,1.27,15.53,8.66,19.74-.81,1.41-2.19,1.09-3.44,1-5.45-.49-22.19,9.39-22.64,13C977.72,517.67,980.11,518.79,981,520.62Z"/></g><g id="Layer_5" data-name="Layer 5"><path class="cls-4" d="M958,316.33c13.11.62,26.75,5.62,39.67,7.3,19.75,2.56,39.42,5.56,59.11,8.42a17.44,17.44,0,0,1,3.17,1.08c1.12,4.37-2,7.18-5,10-8,9.71-18.06,17.48-29.63,23.89-3.64,2-3.37,5.6-3.84,8.62-2.85,18.35-5.84,36.7-8.78,55-3.83,23.87-7.11,47.81-11.11,71.66-.6,3.56-1.39,7.1-3.51,10.27-2.31,3.45-5.34,6-10.5,5.23-8.4.16-16.45-1.83-24.55-3.24-7.81-1.37-11.35-7.93-9.5-16.24,2.3-10.37,4.71-20.71,7.08-31.06q11.45-50.11,23-100.22c.84-3.62.09-6.15-2.93-9C968.9,346.89,962,330.83,958,316.33Z"/></g><g id="Layer_8" data-name="Layer 8"><path class="cls-1" d="M989.54,512.86c5.72-1.77,9.21-5.27,10.11-10.42q3.52-20.31,6.77-40.66c3.06-19.27,5.91-38.57,9-57.84,2-12.78,4.25-25.54,6.27-38.32.32-2,.32-4,2.75-5.11a89.66,89.66,0,0,0,29.34-22.34c.68-.76,3.55-5.67,4.45-6.29,1.37,3,1.51,9.83,5.85,9.89,1.53,0,3.7.19,4.47,1.63-5.41,6.63-13,12.08-21,16.16-3.24,1.64-4.87,3.3-5.27,6.8-5.23,45.46-10.71,90.91-16.16,136.36-1.32,11-7.58,14.93-20.26,12.88C1000.35,514.73,995,513.77,989.54,512.86Z"/></g><g id="Layer_6" data-name="Layer 6"><path class="cls-2" d="M1013.29,443.41c-.54-2.63.05-5.32-.39-8a6.11,6.11,0,0,0-.18-1.59c-.1-4.48-.5-9-.53-13.44,0-6.09.34-12.19-.75-18.22-.7-3.63-1-7.38-3.47-10.47a17.19,17.19,0,0,0-5.76-5.45c-3.36-1.69-6.29-4.25-10.53-4.1a7.37,7.37,0,0,1-1.26-.21,172.31,172.31,0,0,0-44-9c-9.59-.74-17.85,1.23-25.12,7.84-8.56,7.78-20.75,14.54-29.21,22.42C880,414.55,871.61,427,858.33,437.11a40.68,40.68,0,0,1-27,8.35c-1.59,1.33-1.07,3-.86,4.54,1.23,8.95,2.54,17.89,3.82,26.84.92,6.46,2,16.34,3,22.8,32.9.11,83.86,3.71,98.68-35.8a203,203,0,0,1,19.18-37.48,1.15,1.15,0,0,1,.06-.37,17.63,17.63,0,0,0,1.28-2.8c1.69-4.84,4.59-7.75,11-6.57a8.71,8.71,0,0,0,7.81-2.31,11.57,11.57,0,0,1,4.28-2.52c-1.65,1.29-2.95,2.24-4.15,3.29-1.67,1.46-2.83,3.06-2.58,5.32a53.79,53.79,0,0,0,5.63,19.3,25.91,25.91,0,0,0,1.72,3.25c5.51,9.38,13.19,15.53,25.74,14.61,3.87-.28,6-2.24,5-5.06-7.28.95-11.27-1.35-13.53-7.92a36.39,36.39,0,0,1-1.52-5.2c-1-5.86,1.31-8.56,7.68-8.86,3.49-.16,5,.89,5.59,4.06.5,2.57.68,5.18,1.21,7.73.25,1.19.19,2.69,2.07,2.91A1.73,1.73,0,0,0,1013.29,443.41Z"/></g><g id="Layer_1-2" data-name="Layer 1"><path class="cls-5" d="M1013.4,33.19c10.87-13.26,22.75-25.67,41.27-31.49,1.28-.78,7.86-2,13.45-1.63a41.28,41.28,0,0,1,15.75,4.56c6.06,1.47,10.36,4.79,14,9.17A94.28,94.28,0,0,1,1114,42.74a222.93,222.93,0,0,1,9.81,40.91c.19,7.71,2.23,15.32,1.84,23.07-1.3,6.72-.88,13.52-.54,20.24,1.29,25.57-3.2,50.64-8,75.7-3.54,11.75-5.6,23.79-9.36,35.51-4,12.5-8.22,24.94-13.24,37.16-4.16,8.38-7.85,16.92-12.09,25.27-4.53,8.94-10.15,17.35-15.92,25.7-1.9,2.75-4,5.38-8.32,5.58-14.07-.69-27.78-3.45-41.63-5.39-16.36-2.29-32.68-4.78-49.08-6.85-3.47-.44-6.81-1.1-9.44-3.31-5.32-14.34-7-29.22-8.47-44.12C946.68,243,949.31,214,953.41,185c2-13.06,11.34-55.18,21.78-83.34C987.61,68.21,1002,48.23,1013.4,33.19Z"/><path class="cls-6" d="M976.64,470.18c4-2.09,8.39-2,12.7-1.62,3.95.35,7.87,1.07,11.8,1.63-5.71.29-8.54,4.07-10.27,8.25-3.2,10.06,7.26,21.23,7.9,21.76-7.51-1.87-17.85-9.81-24-14.53-3.35-1.4-3.65-4-3.38-7C971.76,475,972.75,471.9,976.64,470.18Z"/><path class="cls-7" d="M1114.6,203.5c1.85-12,3.79-24.06,5.51-36.11,2.9-20.24,3-40.58,3-60.93,3.76.21,3.22,2.9,3.48,4.86.45,3.36.13,6.77.2,10.16.24,10.21,2.45,11.55,12.72,7.74.2,26.69-3.38,53-9.65,79.14-1.16,3.65-3.44,6-8.24,4.78C1116.17,211.71,1113.51,208.58,1114.6,203.5Z"/><path class="cls-8" d="M1114.6,203.5c3.54,8.91,9.08,10.67,15.25,4.86a300.08,300.08,0,0,1-23.54,73.13c-8.33,1.36-13.54-.95-14-6.2A677,677,0,0,0,1114.6,203.5Z"/><path class="cls-9" d="M1092.31,275.29c.68,3.17,3.81,4,6.58,4,2.95,0,4.88,1.68,7.42,2.19-9.42,23.68-36.36,62.38-38.38,62.25-6.29-.42-11.72-6.56-9.75-11.86,1.84-2.73-.92,1.62.92-1.1,7.29-5.75,11-13.57,15.24-20.9C1080.88,298.59,1086.37,286.84,1092.31,275.29Z"/><path class="cls-10" d="M1121.09,82.62c-3.66-21.91-8.14-43.61-21.64-63a60.82,60.82,0,0,0-15.57-15c15.1,0,24.82,7.64,32.2,17.82,11.59,16,17,33.79,19.52,52.36C1136.83,83.24,1132,85.86,1121.09,82.62Z"/><path class="cls-11" d="M1121.09,82.62c2.44-.45,4.94-1.46,7.3-1.25,6,.53,7.61-2.08,7.21-6.56,4.11,18,4.65,36.17,3.9,54.41-2,1.5-.73,6.05-5.25,5-4.32-1-9.58-1.66-9.58-7.27,0-4.75-.15-9.49-.32-14.24-.08-2.12.62-4.39-1.25-6.26Z"/><path class="cls-12" d="M1083,220.12c0,2.71-1.37,4.74-4.67,4.75-2.81,0-3.67-2.13-3.72-4.19a4.37,4.37,0,0,1,4.75-4.77C1082,215.92,1083,217.89,1083,220.12Z"/><path class="cls-13" d="M974.88,210.18a4,4,0,0,1-4.07-4.1c-.14-2.57,1.2-4.78,4.6-4.84a3.86,3.86,0,0,1,4.17,3.93C979.62,207.75,977.91,209.56,974.88,210.18Z"/><path class="cls-14" d="M1024.77,257c-3.27.06-.66-11.55-9-11.09s-6.25,9-9.88,8.92.08-14.21,10.93-12.73S1028,257,1024.77,257Z"/><path class="cls-15" d="M830.19,445.8q4.95,35.13,9.92,70.27c1.72,12,3.55,24.09,5.33,36.14.48,5.12.47,5.1-5.13,6.26-15.25,3.13-30.57,5.88-45.93,8.41-1.55-.77-1.71-2.21-1.89-3.6-1.21-9.35-3-18.62-3.73-28a16.82,16.82,0,0,0-.64-2.31c-3.93-27.79-8-55.57-11.89-83.36-.24-1.75-1-3.58.59-5.22q25.08-2.76,50.14-5.55c1.79-.21,2.29.5,2.44,1.93C829.59,442.43,829.92,444.11,830.19,445.8Z"/><path class="cls-2" d="M1047.46,398.69c7.91,6.77,7.62,22.23-5.11,26.59-1.51.52-2.84,1.17-2.19,3.07.56,1.62,2,1.19,2.95.82,10.67-4,16.87,2.86,19.14,11.18,1.76,6.47,1.43,12.88-3,18.83-2.71,3.63-6.83,4.1-10.76,5.24-1.1.32-2.84-.11-2.85,1.81,0,1.77,1.57,1.63,2.74,2,7.87,2.23,12.73,8.82,12.29,16.72-.48,8.7-5.13,14.41-13.36,16.42-3.1,2-6.65,1.17-10,1.39-6,.39-12-.29-18.07-.21-5.58-.31-11.19-.31-16.75-.86a23.41,23.41,0,0,1-3.83-.55c-10.77-4.27-12.33-20.52-7-27.36,2-2.61,4.86-3.28,7.82-4,7.28-1,14.63-1.19,21.93-1.92,6.37-.32,12.73-1.27,19.13-1.21-6.32-.07-12.59.9-18.89,1.18-7.45.67-14.9,1.17-22.35,1.77a9.75,9.75,0,0,1-4.16-.36c-3.53-2.29-5.19-5.74-6.49-9.36-.47-1.32-.8-2.88.56-4s2.69-.13,3.9.44c4,1.87,8.34,1.95,12.64,1.61a5.86,5.86,0,0,0,5.22-4.45,27.34,27.34,0,0,0,1.15-10.43c-.3-2.66-.71-5.34.53-8,4.21-2.2,9.05-2.22,13.49-3.63,3.56-.87,7.27-1.22,10.67-2.73-3.8.76-7.53,1.75-11.26,2.8a69.62,69.62,0,0,1-11.26,2.3c-2-.09-2.6-1-2.77-2.88-.82-9.47,0-19-1.06-28.47.56-2,2.49-2.43,4.22-3,3.21-1,6.47-1.83,9.69-2.78,2.53-.75,14.09-.93,14.58-3.92C1039.05,392.34,1042.77,394.68,1047.46,398.69Z"/><path class="cls-2" d="M1041.51,501.71c8.76,5.14,11.74,12.47,8.43,20.85a10.14,10.14,0,0,1-8.51,6.74c-7.44,1.14-14.87,2.28-22.4,1.51-3.24-.33-5.66,2.15-8.76,2.2-1.53-1.67-3.55-2.22-5.86-2.62-4.61-.79-9.39-1.12-13.61-3.25-4.42-3-6.86-7-6.39-12.31.61-7,4.85-11.5,12.42-13.27,4.84-.33,9.67.06,14.5,0,8,.26,16.06.13,24.1-.16A25.19,25.19,0,0,1,1041.51,501.71Z"/><path class="cls-5" d="M680.2,587.9c-.82-5.82-555.65,101.1-680.2,87V527.46c-.62-4.36,661.92-70.53,666.67-71.15.54-.07,41,1.2,1.62-.22-2.94-.11,78.82-11.74,108.53-11.74,0,.62,18.81,117.56,19.12,119.67.82,5.55-114,22.5-115.21,23.82A2.33,2.33,0,0,1,680.2,587.9Z"/><path class="cls-3" d="M1045.43,504.2c-6.29.21-10.7-1.25-17-1.07-3.79.1-7.57.15-11.36.22.11-1,1-1.28,1.82-1.68,6,0,12.05.12,18.07.07,3.44,0,6.87-.27,10.31-.41C1047.29,501.73,1045.42,503.8,1045.43,504.2Z"/><path class="cls-6" d="M984.36,468.74c-4.42.05-8.85.08-13.28.17-6.43.14-10.2-2.73-11.12-8.54-.26-1.69-.52-3.39-.72-5.08-.59-5.19,2.37-8.75,8.07-9.63a70.76,70.76,0,0,0,12.62-3c4.54,7.77,10.67,13.68,20.9,14.42,2.29.17,4.79.44,6.95-.85a3.66,3.66,0,0,0,2.12-3.21c-1-2.61-1.81-5.38.08-7.71.72-3.3-1.15-6.31-.54-9.61a3.62,3.62,0,0,1,3.3-.08c.31,4.6.94,9.18.33,13.81-1.16,9-5.57,10.06-13.29,9.47a22,22,0,0,1-7.78-2c-.69-.32-1.51-1.17-2.34-.47s-.28,1.56-.1,2.3a21.24,21.24,0,0,0,3.83,7.51c.54.74,1,1.51,1.53,2.27C991.41,470.48,987.89,470.1,984.36,468.74Z"/><path class="cls-6" d="M978.25,439.79c-3.79.55-7.57,1.12-11.36,1.64a9.13,9.13,0,0,1-9.81-4.79c-1.83-3.29-2.29-7-4-10.34.83-2.07,1.55-4.2,2.53-6.21a8,8,0,0,1,8.72-4.37c3.81.62,7.27.66,10-2.69,1.12-1.38,3.15-1.78,4.85-2.47.58-.23,1.34-.53,1.73.15s-.35,1.07-.82,1.46c-2,1.69-4.07,3.41-6.13,5.07a3.22,3.22,0,0,0-1.18,3.24A64.26,64.26,0,0,0,978.25,439.79Z"/><path class="cls-16" d="M1010.9,445.54c-.23,2.49-.08,5-1,7.44-2.82,2.15-5.08,2.3-8.32.44a12.21,12.21,0,0,1-5.84-6.53c-1.3-3.79-3-7.49-2.19-11.68s3.28-5.58,9.7-5.65c3.79,0,5.48,1.4,6.07,5.24C1009.87,438.38,1010.37,442,1010.9,445.54Z"/><path class="cls-3" d="M953.67,425.92c.6,3.58-.51,7-1.57,10.38a71.62,71.62,0,0,1-14,24.52c-.8,1-1.46,2-2.19,3-3.68,2.11-6.17,5.43-9.48,7.94a107.85,107.85,0,0,1-39.6,19.3c-2.32.57-4.56,1.39-7.26,1.35.75-1.53,2.33-1.6,3.46-2,14.06-4.87,27.3-11.08,38.94-20.12s20.69-19.85,26.32-33C949.92,433.46,950.81,429.29,953.67,425.92Z"/><path class="cls-3" d="M857.09,533.35C847.7,508,841.9,482,842.32,454.85c1.32.69,1.18,1.85,1.32,2.86,1.58,10.84,3,21.72,4.72,32.53,1.81,11.05,4.41,22,7.12,32.85C856.31,526.42,857.88,529.7,857.09,533.35Z"/><path class="cls-3" d="M1009.34,402.33c.61-.1,1.31-1.11,1.92-1.22,1.08,7.53,1,16,.82,23.63-.05,2.41.76,4.73.35,7.18-.18,1.13,12.65-1.5,13.49-1.5.5.28,1.51,1.44.82,1.82-3.6,2-15.86,4.17-17.19,4.08a32.53,32.53,0,0,0-.88-4.08c-1.63-6.65,1.29-16.38,1.47-22.76A48.44,48.44,0,0,0,1009.34,402.33Z"/><path class="cls-4" d="M804.23,450.65c4.67-.67,8.27,1.74,8.79,5.89.49,3.92-2.42,7.26-6.88,7.87-4.13.58-8.07-2.09-8.72-5.9S799.76,451.29,804.23,450.65Z"/><path class="cls-3" d="M1022.09,468.35c-.08-.4-.15-.8-.23-1.19,7-.61,17.16-1.76,24.2-2.37,1-.09-.42.36-.45,1.44s1.65,1.56-1.06,1.47C1037.6,467.43,1029,468.17,1022.09,468.35Z"/><path class="cls-3" d="M1026.74,432.24a1.9,1.9,0,0,0-.82-1.82c3.74-1.09,11.16-3.4,14.9-4.44,1-.27-1,1.11-.66,2.37s2.44,1.16,1.24,1.34C1037.64,430.27,1030.6,432.1,1026.74,432.24Z"/><path class="cls-6" d="M978.06,503.4c4-2.09,8.39-2,12.7-1.62,4,.35,7.87,1.07,11.8,1.63-5.71.29-8.54,4.07-10.27,8.25-2.12,5.15-1.31,10.14,3.15,14.12.61.55,1.27,1.07,1.9,1.6-7.51-1.87-15-3.77-21.11-8.5-3.35-1.39-3.65-4-3.38-7C973.18,508.23,974.17,505.12,978.06,503.4Z"/><path class="cls-16" d="M961.21,436.32c-1.21-3.17-4.1-6.41-3.23-9.95s14.15-9.76,14.83-4.4c.4,3.12,2.37,8.41,2.87,11.64C976.15,436.62,962.15,438.77,961.21,436.32Z"/><path class="cls-16" d="M965.41,465.32c-1.3-3.8-2.92-8.58-2.14-12.76s8.35-4.19,14.77-4.26c3.8,0,2.38,11.27,3,15.12C981.56,467,966.41,468.24,965.41,465.32Z"/><path class="cls-16" d="M974,482.49c-1.3-3.8-1-2.12-.24-6.31s5.85-6.24,12.27-6.31c3.79,0-2.28,14.2-1.69,18.05C984.9,491.5,975,485.41,974,482.49Z"/><path class="cls-16" d="M975.65,510.68c-1.28,5.37,9.88,12.79,11.16,10.21.07-3.72.62-14.07,1.46-17C986.9,503.35,976.93,505.31,975.65,510.68Z"/></g></g></svg>